<svg width="236" height="50" viewBox="0 0 236 50" fill="none" xmlns="http://www.w3.org/2000/svg">
<path d="M133.348 13.8657C133.014 15.7383 132.243 17.2927 131.039 18.5289C129.832 19.7652 128.385 20.6264 126.694 21.1105C128.203 21.4445 129.394 22.1876 130.266 23.3375C131.143 24.4829 131.584 25.8259 131.584 27.3644C131.584 27.8507 131.539 28.3166 131.448 28.7643C130.993 31.4254 129.694 33.5343 127.548 35.0909C125.403 36.643 122.669 37.418 119.349 37.418H104.542L110.159 5.62109H124.467C127.339 5.62109 129.56 6.21194 131.13 7.39364C132.698 8.5708 133.484 10.1979 133.484 12.275C133.484 12.7908 133.439 13.3203 133.348 13.8657ZM120.667 18.5289C121.963 18.5289 123.003 18.2448 123.785 17.6744C124.571 17.0995 125.058 16.2655 125.239 15.1747C125.269 14.9929 125.285 14.7543 125.285 14.4566C125.285 13.5794 124.996 12.9067 124.421 12.4386C123.851 11.9727 123.006 11.7387 121.885 11.7387H116.813L115.64 18.5289H120.667ZM123.749 27.728C123.808 27.3644 123.84 27.0917 123.84 26.9099C123.84 26.0327 123.521 25.3442 122.885 24.8465C122.249 24.3511 121.372 24.1011 120.258 24.1011H114.641L113.368 31.2549H119.076C120.408 31.2549 121.467 30.955 122.249 30.355C123.035 29.7505 123.535 28.8733 123.749 27.728Z" fill="#FECD00"/>
<path d="M150.151 11.7842C153.41 11.7842 155.998 12.6705 157.914 14.4385C159.834 16.202 160.796 18.6085 160.796 21.656C160.796 22.6513 160.718 23.5421 160.568 24.3284C160.446 25.0261 160.264 25.7647 160.023 26.5464H142.497C142.466 26.7282 142.452 27.0168 142.452 27.41C142.452 28.7371 142.811 29.7506 143.534 30.446C144.261 31.1369 145.227 31.4823 146.433 31.4823C148.365 31.4823 149.847 30.6687 150.878 29.0371H159.123C158.032 31.6073 156.262 33.7071 153.815 35.3364C151.372 36.9681 148.626 37.7817 145.579 37.7817C142.311 37.7817 139.707 36.8772 137.762 35.0637C135.816 33.2526 134.844 30.7914 134.844 27.6827C134.844 26.7441 134.935 25.7783 135.116 24.7829C135.564 22.1536 136.498 19.8561 137.916 17.8927C139.339 15.9293 141.107 14.4203 143.216 13.3659C145.329 12.3114 147.642 11.7842 150.151 11.7842ZM152.96 22.6104C153.019 22.1877 153.051 21.8991 153.051 21.7469C153.051 20.5424 152.671 19.6153 151.915 18.9653C151.163 18.3108 150.165 17.9836 148.924 17.9836C147.597 17.9836 146.427 18.3836 145.415 19.1835C144.402 19.9834 143.67 21.1265 143.216 22.6104H152.96Z" fill="#FECD00"/>
<path d="M178.051 11.7842C181.31 11.7842 183.898 12.6705 185.814 14.4385C187.734 16.202 188.695 18.6085 188.695 21.656C188.695 22.6513 188.618 23.5421 188.468 24.3284C188.345 25.0261 188.164 25.7647 187.923 26.5464H170.397C170.365 26.7282 170.352 27.0168 170.352 27.41C170.352 28.7371 170.711 29.7506 171.433 30.446C172.161 31.1369 173.126 31.4823 174.333 31.4823C176.265 31.4823 177.746 30.6687 178.778 29.0371H187.023C185.932 31.6073 184.162 33.7071 181.714 35.3364C179.271 36.9681 176.526 37.7817 173.479 37.7817C170.211 37.7817 167.607 36.8772 165.661 35.0637C163.716 33.2526 162.743 30.7914 162.743 27.6827C162.743 26.7441 162.834 25.7783 163.016 24.7829C163.464 22.1536 164.398 19.8561 165.816 17.8927C167.238 15.9293 169.006 14.4203 171.115 13.3659C173.229 12.3114 175.542 11.7842 178.051 11.7842ZM180.86 22.6104C180.919 22.1877 180.951 21.8991 180.951 21.7469C180.951 20.5424 180.571 19.6153 179.814 18.9653C179.062 18.3108 178.065 17.9836 176.824 17.9836C175.497 17.9836 174.326 18.3836 173.315 19.1835C172.302 19.9834 171.57 21.1265 171.115 22.6104H180.86Z" fill="#FECD00"/>
<path d="M0.299971 22.4622C0.820374 19.4761 1.93617 16.8128 3.6451 14.4721C5.35402 12.1269 7.48563 10.3043 10.0445 8.99989C12.601 7.69093 15.3735 7.03645 18.3618 7.03645C21.9797 7.03645 24.8885 7.91363 27.0883 9.66346C29.288 11.4156 30.4879 13.8426 30.6879 16.9446H22.5796C22.2092 15.9401 21.557 15.172 20.6252 14.6448C19.6912 14.113 18.5482 13.8449 17.1983 13.8449C14.8099 13.8449 12.7624 14.6312 11.0535 16.1992C9.34454 17.7627 8.25828 19.8511 7.79923 22.4622C7.65834 23.3235 7.59016 24.0711 7.59016 24.7074C7.59016 26.8345 8.20374 28.4752 9.43544 29.6251C10.6717 30.7705 12.4261 31.3431 14.6986 31.3431C16.5347 31.3431 18.155 30.8773 19.5617 29.9433C20.9729 29.0116 22.1092 27.6799 22.9705 25.9528H13.6623L14.5713 20.5715H30.597L29.3971 27.4163C28.529 29.2593 27.2996 30.9705 25.7066 32.5521C24.1113 34.1292 22.2205 35.4064 20.0344 36.3881C17.8528 37.3653 15.4985 37.8516 12.9715 37.8516C10.3581 37.8516 8.06739 37.3426 6.0994 36.3245C4.12914 35.3018 2.6202 33.8702 1.57257 32.034C0.522676 30.1933 0 28.0503 0 25.6073C0 24.7779 0.0999902 23.7303 0.299971 22.4622Z" fill="white"/>
<path d="M41.4146 13.5903L44.3415 28.6252L52.5316 13.5903H60.5036L39.1693 49.0505H31.2428L38.9148 36.8153L33.2245 13.5903H41.4146Z" fill="white"/>
<path d="M93.8987 13.3267C96.4848 13.3267 98.5028 14.0085 99.9527 15.372C101.4 16.7355 102.125 18.6398 102.125 21.0805C102.125 21.8327 102.039 22.6667 101.871 23.5803L99.3709 37.6334H92.0444L94.3714 24.5711C94.4259 24.287 94.4532 23.8984 94.4532 23.4075C94.4532 22.2031 94.1169 21.285 93.4442 20.6533C92.7716 20.0238 91.8307 19.7079 90.6263 19.7079C89.1833 19.7079 87.9743 20.1329 86.9994 20.9805C86.0222 21.8236 85.4041 23.0212 85.145 24.5711L82.818 37.6334H75.4914L77.8185 24.5711C77.8776 24.287 77.9094 23.8984 77.9094 23.4075C77.9094 22.2031 77.5685 21.285 76.8913 20.6533C76.2186 20.0238 75.2778 19.7079 74.0734 19.7079C72.6372 19.7079 71.4305 20.1329 70.4556 20.9805C69.4784 21.8236 68.8603 23.0212 68.6012 24.5711V24.362L66.2742 37.6334H58.9022L63.129 13.5903H70.4919L69.9829 16.6446C70.8964 15.6083 72.01 14.797 73.3189 14.2085C74.6279 13.6221 76.0414 13.3267 77.564 13.3267C79.4001 13.3267 80.9568 13.7153 82.2362 14.4902C83.5134 15.2674 84.4269 16.3878 84.9723 17.8535C86.0381 16.5037 87.3585 15.4129 88.9356 14.5811C90.5172 13.7449 92.1716 13.3267 93.8987 13.3267Z" fill="white"/>
<mask id="mask0_2_4" style="mask-type:luminance" maskUnits="userSpaceOnUse" x="195" y="0" width="41" height="44">
<path d="M195.277 0H236V43.0503H195.277V0Z" fill="white"/>
</mask>
<g mask="url(#mask0_2_4)">
<mask id="mask1_2_4" style="mask-type:luminance" maskUnits="userSpaceOnUse" x="188" y="-8" width="60" height="62">
<path d="M188.232 34.1058L210.907 -7.89011L247.176 11.6921L224.501 53.6879L188.232 34.1058Z" fill="white"/>
</mask>
<g mask="url(#mask1_2_4)">
<mask id="mask2_2_4" style="mask-type:luminance" maskUnits="userSpaceOnUse" x="188" y="-8" width="60" height="62">
<path d="M188.232 34.1058L210.907 -7.89011L247.176 11.6921L224.501 53.6879L188.232 34.1058Z" fill="white"/>
</mask>
<g mask="url(#mask2_2_4)">
<path fill-rule="evenodd" clip-rule="evenodd" d="M217.17 27.0201C215.82 23.9568 217.422 20.9889 220.722 20.4366C220.947 20.398 221.158 20.3776 221.374 20.348C221.574 23.2296 219.965 26.2088 217.463 27.62C217.363 27.4314 217.259 27.2269 217.17 27.0201ZM206.894 17.2211C206.153 18.6709 206.178 20.5616 207.244 22.2092C208.555 21.3229 209.903 20.5889 211.182 20.0321L211.691 19.8117L211.596 19.264C211.359 17.8892 211.234 16.3598 211.257 14.7781C209.294 14.7895 207.698 15.8053 206.894 17.2211ZM204.355 24.0817C203.783 23.2091 203.381 22.241 203.162 21.2525L199.376 22.3046C198.772 23.1046 197.638 23.3659 196.715 22.866C195.688 22.3115 195.299 21.0434 195.838 20.0458C196.343 19.1118 197.472 18.73 198.454 19.1254L203.085 17.846C203.226 17.0893 203.469 16.3643 203.819 15.6689L203.862 15.5849L203.908 15.5008C204.299 14.8281 204.771 14.2259 205.326 13.6941L203.855 9.11958C202.987 8.51509 202.685 7.36066 203.19 6.42666C203.728 5.4313 205.001 5.05861 206.03 5.6131C206.953 6.11305 207.357 7.20158 207.021 8.14695L208.219 11.8898C209.164 11.5284 210.193 11.3353 211.239 11.3353L211.55 11.3285C212.264 6.80617 214.377 2.51795 218.677 1.03401C223.574 -0.734 228.717 2.05664 229.903 7.13341C230.341 8.95369 230.242 10.8035 229.601 12.5624C228.937 14.3622 227.726 15.9348 226.212 17.2483C231.282 19.0072 234.343 24.2385 235.275 30.0107L235.741 32.8491L233.082 33.974C227.705 36.2328 221.724 36.6101 217.509 33.3695C216.972 37.1691 215.104 40.5301 211.082 41.9914C206.187 43.7866 201.033 41.0164 199.824 35.9533C198.706 31.5424 201.133 27.4223 204.521 24.3476L204.355 24.0817ZM224.608 20.5912C225.817 20.9366 226.865 21.5547 227.751 22.3683C227.346 26.0247 225.485 29.4699 222.66 31.8196C221.488 31.5356 220.39 31.0106 219.44 30.188C222.67 28.1791 224.71 24.3999 224.608 20.5912ZM230.282 25.9475C230.951 27.3951 231.4 28.9926 231.662 30.5947C230.171 31.222 228.614 31.6969 227.065 31.9332C228.514 30.1675 229.603 28.1268 230.282 25.9475ZM203.383 35.0738C202.047 29.9266 208.914 25.0021 212.639 23.3932C214.104 27.4814 215.75 36.401 209.83 38.5531C206.973 39.5984 204.076 38.0349 203.383 35.0738ZM215.207 18.6391C214.507 14.6418 214.857 6.19714 219.895 4.49276C222.751 3.44741 225.647 5.01089 226.34 7.97196C227.789 14.1032 219.429 17.621 215.207 18.6391Z" fill="#FECD00"/>
</g>
</g>
</g>
<mask id="mask3_2_4" style="mask-type:luminance" maskUnits="userSpaceOnUse" x="205" y="14" width="7" height="9">
<path d="M205.664 14.2356H211.481V22.3802H205.664V14.2356Z" fill="white"/>
</mask>
<g mask="url(#mask3_2_4)">
<mask id="mask4_2_4" style="mask-type:luminance" maskUnits="userSpaceOnUse" x="187" y="-9" width="60" height="63">
<path d="M187.566 33.7973L210.241 -8.19859L246.51 11.3836L223.835 53.3795L187.566 33.7973Z" fill="white"/>
</mask>
<g mask="url(#mask4_2_4)">
<mask id="mask5_2_4" style="mask-type:luminance" maskUnits="userSpaceOnUse" x="187" y="-9" width="60" height="63">
<path d="M187.566 33.7973L210.241 -8.19859L246.51 11.3836L223.835 53.3795L187.566 33.7973Z" fill="white"/>
</mask>
<g mask="url(#mask5_2_4)">
<path fill-rule="evenodd" clip-rule="evenodd" d="M206.228 16.9126C205.487 18.3624 205.512 20.2532 206.578 21.9007C207.889 21.0144 209.236 20.2804 210.516 19.7237L211.025 19.5032L210.929 18.9556C210.693 17.5807 210.568 16.0513 210.591 14.4696C208.627 14.481 207.032 15.4968 206.228 16.9126Z" fill="black"/>
</g>
</g>
</g>
<mask id="mask6_2_4" style="mask-type:luminance" maskUnits="userSpaceOnUse" x="215" y="19" width="17" height="13">
<path d="M215.554 19.4714H231.261V31.6884H215.554V19.4714Z" fill="white"/>
</mask>
<g mask="url(#mask6_2_4)">
<mask id="mask7_2_4" style="mask-type:luminance" maskUnits="userSpaceOnUse" x="187" y="-9" width="60" height="63">
<path d="M187.566 33.7972L210.241 -8.19866L246.51 11.3835L223.835 53.3794L187.566 33.7972Z" fill="white"/>
</mask>
<g mask="url(#mask7_2_4)">
<mask id="mask8_2_4" style="mask-type:luminance" maskUnits="userSpaceOnUse" x="187" y="-9" width="60" height="63">
<path d="M187.566 33.7972L210.241 -8.19866L246.51 11.3835L223.835 53.3794L187.566 33.7972Z" fill="white"/>
</mask>
<g mask="url(#mask8_2_4)">
<path fill-rule="evenodd" clip-rule="evenodd" d="M230.996 30.286C230.912 30.3201 230.837 30.3588 230.755 30.3838L230.734 30.3974C230.655 30.4224 230.569 30.4565 230.494 30.4974L230.482 30.4906C230.398 30.5247 230.328 30.5542 230.244 30.5883L230.228 30.5928C230.146 30.6178 230.071 30.6565 229.991 30.6815L229.96 30.6905C229.889 30.7201 229.81 30.7451 229.73 30.7678L229.698 30.7769C229.628 30.8064 229.56 30.836 229.48 30.861L229.448 30.8701C229.366 30.8928 229.298 30.9223 229.219 30.9473L229.171 30.961C229.105 30.9814 229.041 30.9996 228.978 31.0178L228.898 31.0428C228.844 31.0678 228.78 31.086 228.717 31.1064L228.642 31.1201C228.589 31.1428 228.526 31.1632 228.462 31.1814L228.371 31.1996C228.323 31.2155 228.26 31.2337 228.212 31.2473C228.169 31.2519 228.137 31.2609 228.098 31.2814C228.057 31.2859 228.01 31.2996 227.96 31.3132C227.919 31.3178 227.871 31.3314 227.823 31.3473C227.78 31.3496 227.733 31.3655 227.701 31.3746C227.653 31.3882 227.61 31.3928 227.562 31.4064L227.455 31.4291C227.398 31.4382 227.348 31.4541 227.292 31.4609L227.185 31.4859C227.126 31.4927 227.078 31.5087 227.021 31.5177L226.93 31.5359C226.883 31.5496 226.824 31.5586 226.764 31.5677L226.676 31.5859C226.617 31.595 226.558 31.6018 226.501 31.6109L226.399 31.6245C227.848 29.8588 228.937 27.8181 229.616 25.6388L229.641 25.6933C229.662 25.7569 229.696 25.816 229.714 25.8797L229.75 25.9387C229.78 26.0092 229.805 26.0615 229.823 26.1251L229.848 26.1796C229.878 26.2501 229.903 26.3023 229.932 26.3728L229.957 26.4251C229.975 26.4887 230.005 26.5591 230.023 26.6228L230.044 26.6614C230.069 26.7409 230.098 26.8114 230.128 26.8796L230.137 26.9114C230.16 26.9909 230.189 27.0614 230.219 27.1318L230.23 27.1636C230.253 27.2432 230.278 27.3227 230.307 27.3931L230.305 27.4181C230.33 27.4977 230.36 27.5681 230.382 27.6477L230.391 27.6795C230.421 27.7499 230.439 27.8408 230.464 27.9204C230.487 27.9999 230.512 28.0794 230.53 28.1703L230.535 28.1862C230.56 28.2658 230.582 28.3453 230.6 28.4362L230.612 28.4408C230.63 28.5317 230.653 28.6112 230.678 28.6907L230.671 28.7021C230.696 28.7816 230.714 28.8725 230.737 28.9521L230.741 28.968C230.759 29.0589 230.773 29.1339 230.791 29.2225C230.809 29.3134 230.83 29.4043 230.853 29.4838L230.848 29.4952C230.871 29.5747 230.889 29.6634 230.907 29.7543C230.925 29.8452 230.934 29.9293 230.953 30.0202C230.971 30.1111 230.978 30.1951 230.996 30.286ZM221.994 31.5109C221.942 31.5109 221.885 31.4927 221.829 31.4746L221.76 31.4518C221.701 31.4337 221.656 31.4223 221.597 31.4041L221.524 31.3905C221.467 31.3746 221.419 31.3609 221.367 31.3337L221.299 31.3109C221.242 31.2928 221.185 31.2746 221.126 31.2587L221.058 31.2337C221.017 31.211 220.96 31.195 220.908 31.1655L220.84 31.1428C220.783 31.1246 220.731 31.0973 220.674 31.0791L220.622 31.0519C220.57 31.0246 220.501 30.9996 220.449 30.9723L220.397 30.9451C220.34 30.9269 220.288 30.8996 220.236 30.8701L220.186 30.8428C220.122 30.8087 220.07 30.7814 220.02 30.7542L219.967 30.7246C219.915 30.6974 219.851 30.6633 219.806 30.6246L219.754 30.5974C219.701 30.5701 219.645 30.5247 219.595 30.4974L219.551 30.4747C219.495 30.4315 219.433 30.3974 219.388 30.3588L219.345 30.336C219.288 30.2929 219.233 30.2474 219.186 30.2088L219.145 30.1883C219.088 30.1429 219.042 30.1042 218.986 30.0611L218.958 30.0338C218.902 29.9906 218.836 29.9406 218.783 29.8861L218.774 29.8793C222.004 27.8704 224.044 24.0912 223.942 20.2825L224.01 20.3052C224.067 20.3234 224.126 20.3416 224.171 20.3529C224.203 20.3711 224.231 20.3711 224.251 20.3825C224.308 20.4007 224.356 20.412 224.408 20.4393C224.444 20.4461 224.465 20.4575 224.496 20.4734C224.542 20.487 224.601 20.5052 224.642 20.5256C224.678 20.5325 224.71 20.5506 224.742 20.5665C224.787 20.5779 224.831 20.6006 224.871 20.6234C224.908 20.6302 224.94 20.6461 224.969 20.6643C225.012 20.687 225.049 20.6915 225.09 20.7143C225.13 20.737 225.162 20.7529 225.203 20.7756C225.242 20.7824 225.271 20.8006 225.315 20.8211C225.344 20.8392 225.387 20.862 225.428 20.8847C225.458 20.9006 225.49 20.9165 225.521 20.9347C225.562 20.9574 225.603 20.9779 225.655 21.0074C225.676 21.0188 225.708 21.0347 225.733 21.0619C225.776 21.0847 225.826 21.1119 225.869 21.1347C225.89 21.146 225.905 21.1688 225.935 21.1847C225.987 21.2119 226.039 21.2415 226.085 21.2801L226.137 21.3074C226.185 21.346 226.23 21.3846 226.292 21.4187L226.328 21.4505C226.38 21.4778 226.426 21.5164 226.483 21.5619L226.519 21.5937C226.576 21.6369 226.633 21.6823 226.689 21.7255L226.71 21.7369C226.839 21.846 226.967 21.955 227.085 22.0596C226.68 25.716 224.819 29.1612 221.994 31.5109ZM216.797 27.3113L216.781 27.2886L216.765 27.2682C216.722 27.1773 216.677 27.0841 216.643 27L216.631 26.9932C216.588 26.9023 216.547 26.8023 216.504 26.7114C216.49 26.6614 216.465 26.6091 216.445 26.5705C216.42 26.5182 216.406 26.4705 216.39 26.4228C216.377 26.3728 216.347 26.3296 216.331 26.2819C216.318 26.2342 216.304 26.1864 216.29 26.1387C216.275 26.091 216.261 26.0433 216.247 25.9956C216.231 25.9478 216.218 25.9001 216.204 25.8501C216.188 25.8024 216.175 25.7547 216.17 25.7138C216.156 25.6638 216.143 25.616 216.138 25.5751C216.125 25.5274 216.109 25.4797 216.111 25.4252C216.097 25.3774 216.093 25.3365 216.079 25.2865C216.075 25.2456 216.07 25.2025 216.061 25.1456C216.059 25.1025 216.054 25.0593 216.05 25.0184C216.04 24.9593 216.038 24.9161 216.034 24.8752C216.029 24.832 216.031 24.7798 216.027 24.7366C216.022 24.6957 216.025 24.6411 216.02 24.6002C216.018 24.5571 216.029 24.5093 216.025 24.4684C216.022 24.4253 216.022 24.373 216.029 24.3366C216.031 24.2821 216.038 24.2457 216.038 24.1935C216.036 24.1503 216.04 24.1139 216.054 24.0685C216.05 24.0253 216.061 23.9776 216.059 23.9367C216.07 23.8889 216.077 23.8526 216.088 23.8049C216.084 23.7617 216.097 23.7162 216.102 23.6776C216.115 23.6322 216.122 23.5935 216.134 23.5481C216.14 23.5117 216.152 23.464 216.159 23.4276C216.17 23.3799 216.186 23.3481 216.2 23.3004C216.206 23.264 216.218 23.2186 216.24 23.1754C216.247 23.139 216.259 23.0913 216.275 23.0618C216.288 23.014 216.304 22.9822 216.315 22.9368C216.338 22.8936 216.356 22.864 216.368 22.8163C216.384 22.7845 216.406 22.7436 216.413 22.7072C216.436 22.6641 216.459 22.6232 216.475 22.5913C216.497 22.5504 216.513 22.5186 216.536 22.4777C216.559 22.4368 216.575 22.405 216.597 22.3641C216.615 22.3323 216.638 22.2914 216.659 22.2505C216.686 22.2232 216.709 22.1823 216.727 22.1505C216.759 22.1164 216.777 22.0846 216.797 22.0437C216.831 22.0073 216.847 21.9755 216.881 21.9391C216.897 21.9096 216.931 21.8732 216.956 21.8482C216.979 21.8051 217.013 21.771 217.04 21.7437C217.072 21.7073 217.09 21.6778 217.122 21.6414C217.149 21.6164 217.181 21.5801 217.209 21.5551C217.243 21.5187 217.27 21.4937 217.302 21.4574C217.329 21.4324 217.363 21.396 217.399 21.3756C217.434 21.3392 217.461 21.3142 217.493 21.2778C217.529 21.2574 217.563 21.2233 217.599 21.2028C217.633 21.1665 217.661 21.1415 217.697 21.121C217.74 21.0915 217.768 21.0642 217.811 21.0347C217.838 21.0097 217.881 20.9801 217.92 20.9597C217.956 20.9392 217.99 20.9029 218.027 20.8824C218.065 20.8642 218.108 20.8324 218.145 20.8142C218.183 20.7938 218.227 20.762 218.265 20.7438C218.302 20.7233 218.34 20.7029 218.393 20.6779C218.431 20.6574 218.468 20.6393 218.506 20.6188C218.558 20.5938 218.597 20.5734 218.633 20.5552C218.681 20.5393 218.72 20.5188 218.767 20.5052C218.811 20.4756 218.858 20.4597 218.906 20.4461C218.945 20.4256 218.992 20.412 219.04 20.3984C219.079 20.3779 219.127 20.3643 219.174 20.3484C219.222 20.3347 219.27 20.3211 219.317 20.3075C219.365 20.2916 219.413 20.2779 219.461 20.2643C219.511 20.2484 219.558 20.2348 219.606 20.2211C219.654 20.2052 219.706 20.2075 219.754 20.1939C219.801 20.1779 219.849 20.1643 219.908 20.1552C219.951 20.1529 220.008 20.1439 220.056 20.1279C220.158 20.1166 220.265 20.0939 220.365 20.0802L220.374 20.087C220.476 20.0734 220.565 20.0552 220.66 20.053L220.708 20.0393C220.908 22.9209 219.299 25.9001 216.797 27.3113Z" fill="black"/>
</g>
</g>
</g>
</svg>
